<?xml version="1.0" encoding="UTF-8"?>
<svg version="1.1" xmlns="http://www.w3.org/2000/svg" width="360" height="360">
<path d="M0 0 C28.20999488 26.88836345 42.11505895 63.35360445 43.54296875 101.8046875 C44.23482289 140.95274872 27.2754627 176.9401987 0.54296875 204.8046875 C-26.91456842 232.0072011 -63.31821855 245.99058608 -101.85595703 245.85400391 C-139.16611633 245.14660273 -172.46324755 230.27895357 -199.45703125 204.8046875 C-200.194375 204.13179687 -200.93171875 203.45890625 -201.69140625 202.765625 C-225.5592666 180.16733169 -240.8044804 145.18955043 -242.40234375 112.52734375 C-242.42941406 111.17962891 -242.42941406 111.17962891 -242.45703125 109.8046875 C-242.49570313 108.75152344 -242.534375 107.69835937 -242.57421875 106.61328125 C-243.38180773 67.17601936 -228.39580122 31.35033146 -201.45703125 2.8046875 C-200.78414062 2.06734375 -200.11125 1.33 -199.41796875 0.5703125 C-145.32169285 -56.56508003 -55.51972948 -49.60586323 0 0 Z M-123.45703125 -28.1953125 C-124.15489746 -28.10169434 -124.85276367 -28.00807617 -125.57177734 -27.91162109 C-129.71543965 -27.17102275 -131.18612649 -26.48905517 -134.14453125 -23.28125 C-134.94243917 -22.06155969 -135.71219348 -20.82311663 -136.45703125 -19.5703125 C-136.87509033 -18.90298096 -137.29314941 -18.23564941 -137.72387695 -17.5480957 C-144.00641051 -7.31613147 -149.04331224 3.40145069 -153.45703125 14.5546875 C-153.76020264 15.3175708 -154.06337402 16.0804541 -154.37573242 16.86645508 C-155.73511572 20.4192163 -156.45703125 22.95540724 -156.45703125 26.8046875 C-128.45191027 34.6200701 -101.46889211 25.11798634 -76.88671875 11.421875 C-63.81973696 3.86054354 -51.34157222 -4.8943674 -39.45703125 -14.1953125 C-49.53171731 -26.019076 -74.81685831 -28.68975695 -89.3203125 -29.91796875 C-100.83262957 -30.74196949 -112.07571911 -30.03136213 -123.45703125 -28.1953125 Z M-187.45703125 2.8046875 C-186.58633102 8.648933 -181.72266821 12.12549845 -177.45703125 15.8046875 C-173.8877025 18.31558886 -170.22912914 20.61193527 -166.45703125 22.8046875 C-165.02946216 20.06169052 -163.86540523 17.32979157 -162.828125 14.41796875 C-158.54742683 2.65079765 -153.59029204 -8.28428182 -147.45703125 -19.1953125 C-147.12703125 -19.8553125 -146.79703125 -20.5153125 -146.45703125 -21.1953125 C-159.24256695 -21.1953125 -178.16077705 -4.84381794 -187.45703125 2.8046875 Z M-34.30859375 -6.51953125 C-35.06817383 -5.94444824 -35.82775391 -5.36936523 -36.61035156 -4.77685547 C-37.42600586 -4.15182129 -38.24166016 -3.52678711 -39.08203125 -2.8828125 C-68.52062538 19.16550271 -106.22491901 43.16245167 -144.8046875 38.390625 C-149.7154145 37.64875643 -154.59189995 36.80289374 -159.45703125 35.8046875 C-163.05683146 46.70621013 -165.45703125 59.28333502 -165.45703125 70.8046875 C-164.75320312 70.71904541 -164.049375 70.63340332 -163.32421875 70.54516602 C-97.96205943 62.64688289 -33.76761144 69.47193734 27.76171875 93.7734375 C30.36112898 94.92057332 30.36112898 94.92057332 32.54296875 94.8046875 C34.11481461 65.46356479 18.34632078 35.4466594 -0.54296875 14.12036133 C-8.49930911 5.31096721 -17.31154568 -2.94170172 -27.45703125 -9.1953125 C-30.96417073 -9.1953125 -31.59980361 -8.60129265 -34.30859375 -6.51953125 Z M-195.45703125 10.8046875 C-214.92217637 30.71684013 -231.4973167 60.78545387 -231.52734375 89.24609375 C-231.50949768 90.76570095 -231.48801981 92.28529149 -231.45703125 93.8046875 C-230.32652344 93.25941406 -229.19601563 92.71414062 -228.03125 92.15234375 C-213.87955054 85.48165973 -199.34242013 80.56347507 -184.45703125 75.8046875 C-179.0515535 74.47414162 -179.0515535 74.47414162 -174.45703125 71.8046875 C-174.19426905 70.21664902 -173.98903954 68.61901538 -173.80859375 67.01953125 C-173.69169189 66.02050781 -173.57479004 65.02148438 -173.4543457 63.9921875 C-173.27005005 62.3834375 -173.27005005 62.3834375 -173.08203125 60.7421875 C-171.92281263 50.99807304 -170.44938926 41.4132226 -168.45703125 31.8046875 C-169.111875 31.49917969 -169.76671875 31.19367188 -170.44140625 30.87890625 C-180.43871249 25.86613264 -187.65091164 18.66616966 -195.45703125 10.8046875 Z M-158.39453125 79.3046875 C-159.46006226 79.48221558 -159.46006226 79.48221558 -160.54711914 79.66333008 C-162.1990964 79.9704084 -163.83194132 80.37759422 -165.45703125 80.8046875 C-166.72993874 83.35050248 -166.5864645 85.15640828 -166.58984375 88.00390625 C-166.59113281 89.04869141 -166.59242188 90.09347656 -166.59375 91.16992188 C-166.58988281 92.26626953 -166.58601563 93.36261719 -166.58203125 94.4921875 C-166.58589844 95.56919922 -166.58976562 96.64621094 -166.59375 97.75585938 C-166.58705976 103.21175003 -166.42553222 108.43181307 -165.45703125 113.8046875 C-164.85979248 113.80879639 -164.26255371 113.81290527 -163.6472168 113.81713867 C-127.44120401 114.24985228 -98.92154779 128.52498156 -72.45703125 152.8046875 C-71.50231934 153.67697998 -71.50231934 153.67697998 -70.52832031 154.56689453 C-63.85301602 160.68999576 -57.29667669 166.90781319 -50.96411133 173.38549805 C-40.90441673 183.6576525 -29.96773953 193.67267324 -15.45703125 196.8046875 C-14.73386719 196.97613281 -14.01070312 197.14757812 -13.265625 197.32421875 C-10.33183104 197.68671389 -8.32158698 197.60241188 -5.45703125 196.8046875 C-1.06959518 193.37212727 2.21180258 189.24222071 5.54296875 184.8046875 C5.97109863 184.24297852 6.39922852 183.68126953 6.84033203 183.10253906 C22.2403167 162.51787313 31.34277993 138.02986685 33.08984375 112.44140625 C33.17588867 111.19447998 33.26193359 109.94755371 33.35058594 108.6628418 C33.41407227 107.71965088 33.47755859 106.77645996 33.54296875 105.8046875 C14.07024919 98.72512632 -5.34154727 91.86562264 -25.45703125 86.8046875 C-26.37274902 86.57201172 -27.2884668 86.33933594 -28.23193359 86.09960938 C-70.48420482 75.5158112 -115.29309713 72.03094478 -158.39453125 79.3046875 Z M-231.45703125 104.8046875 C-232.80489634 105.91840812 -232.80489634 105.91840812 -232.4765625 108.76953125 C-231.7354113 122.99124388 -230.04075814 148.22096061 -219.45703125 158.8046875 C-218.86277344 157.78890625 -218.26851562 156.773125 -217.65625 155.7265625 C-206.71582807 137.39414489 -194.68257419 126.41745897 -175.45703125 116.8046875 C-175.45703125 105.5846875 -175.45703125 94.3646875 -175.45703125 82.8046875 C-192.86351039 82.8046875 -216.84044685 95.75016619 -231.45703125 104.8046875 Z M-164.45703125 123.8046875 C-163.97270726 152.15965567 -156.11228185 180.30059781 -147.83203125 207.2421875 C-147.45981445 208.45704834 -147.08759766 209.67190918 -146.70410156 210.92358398 C-145.66561429 214.23405065 -144.58048293 217.52217974 -143.45703125 220.8046875 C-143.15659912 221.71500732 -142.85616699 222.62532715 -142.54663086 223.56323242 C-140.97321484 227.75886836 -140.26599581 229.39108878 -136.1640625 231.48828125 C-134.87886719 231.73707031 -133.59367187 231.98585938 -132.26953125 232.2421875 C-131.57045654 232.38430664 -130.87138184 232.52642578 -130.15112305 232.67285156 C-127.92537235 233.10378582 -125.69831301 233.46431954 -123.45703125 233.8046875 C-122.73128906 233.91893066 -122.00554687 234.03317383 -121.2578125 234.15087891 C-85.23713351 239.60733275 -48.92183052 230.93641513 -19.45703125 209.3046875 C-18.46703125 208.4796875 -17.47703125 207.6546875 -16.45703125 206.8046875 C-16.45703125 206.4746875 -16.45703125 206.1446875 -16.45703125 205.8046875 C-17.26785156 205.59714844 -18.07867187 205.38960938 -18.9140625 205.17578125 C-34.62304883 200.80506212 -46.84752437 191.02439026 -57.8984375 179.23828125 C-59.34942585 177.57902863 -59.34942585 177.57902863 -61.45703125 177.8046875 C-61.69164062 177.23234375 -61.92625 176.66 -62.16796875 176.0703125 C-63.75593562 173.27934043 -65.64991347 171.64796534 -68.08203125 169.5546875 C-71.2566614 166.77801669 -74.30178074 163.98586012 -77.20703125 160.9296875 C-96.94703902 140.99148688 -126.23393278 123.15779428 -154.83203125 122.6171875 C-158.12519411 122.78752351 -161.21506427 123.23391867 -164.45703125 123.8046875 Z M-175.45703125 126.8046875 C-189.07580886 133.98247256 -199.04210849 143.14406574 -207.33789062 156.07177734 C-208.40977084 157.73150809 -209.53397614 159.35709211 -210.66015625 160.98046875 C-212.51704728 163.9881641 -213.77451486 166.33522916 -214.45703125 169.8046875 C-213.12809161 174.27708053 -210.47312136 177.30985292 -207.45703125 180.8046875 C-206.59189393 181.87766959 -205.73000988 182.95328143 -204.87109375 184.03125 C-192.81405634 198.93785407 -172.72073784 221.01748622 -152.45703125 223.8046875 C-153.61782987 218.20454197 -155.02235268 212.80625746 -156.76635742 207.36157227 C-164.47151537 183.28215039 -170.61241627 157.98819522 -172.93359375 132.76171875 C-173.04844735 128.80775692 -173.04844735 128.80775692 -175.45703125 126.8046875 Z " fill="#111111" transform="translate(279.45703125,77.1953125)"/>
<path d="M0 0 C0.66 0.33 1.32 0.66 2 1 C-3.01829651 6.9219126 -8.16430096 12.86553567 -14 18 C-14.66 18 -15.32 18 -16 18 C-14.6415798 14.95667235 -13.11536976 12.87690849 -10.7421875 10.546875 C-10.11699219 9.928125 -9.49179688 9.309375 -8.84765625 8.671875 C-8.19667969 8.03765625 -7.54570313 7.4034375 -6.875 6.75 C-6.21628906 6.1003125 -5.55757812 5.450625 -4.87890625 4.78125 C-3.25703357 3.18288273 -1.6306719 1.58938103 0 0 Z " fill="#303030" transform="translate(87,71)"/>
</svg>
